<svg width="21" height="23" viewBox="0 0 21 23" fill="none" xmlns="http://www.w3.org/2000/svg">
<path fill-rule="evenodd" clip-rule="evenodd" d="M0 8.37209V17.3023H2.80335C3.09785 17.3023 3.38948 17.3601 3.6616 17.4723C3.93365 17.5845 4.18093 17.7489 4.38913 17.9562C4.59739 18.1635 4.76261 18.4097 4.87534 18.6805C4.98799 18.9514 5.04603 19.2417 5.04603 19.5349V22.3256H11.7741L20.1841 13.9535V5.02326H17.3808C17.0862 5.02326 16.7946 4.96552 16.5225 4.85332C16.2504 4.74112 16.0032 4.57667 15.795 4.36936C15.5867 4.16205 15.4215 3.91592 15.3087 3.64506C15.1961 3.3742 15.1381 3.08389 15.1381 2.7907V0H8.41004L0 8.37209ZM9.53138 16.7442H5.60669V10.6047L10.6527 5.5814H14.5774V11.7209L9.53138 16.7442Z" fill="white"/>
</svg>
